<?xml version="1.0" encoding="utf-8"?>
<!-- Generator: Adobe Illustrator 26.0.3, SVG Export Plug-In . SVG Version: 6.00 Build 0)  -->
<svg version="1.1" id="Ebene_1" xmlns="http://www.w3.org/2000/svg" xmlns:xlink="http://www.w3.org/1999/xlink" x="0px" y="0px"
	 viewBox="0 0 1110 168" style="enable-background:new 0 0 1110 168;" xml:space="preserve">
<style type="text/css">
	.st0{fill:#3A3054;}
	.st1{fill:#FFFFFF;filter:url(#Adobe_OpacityMaskFilter);}
	.st2{mask:url(#mask0_0_618_00000135681558253245242810000000133959829055694751_);}
	.st3{fill-rule:evenodd;clip-rule:evenodd;fill:#4B3F6B;}
</style>
<path class="st0" d="M-799.1-170.7h2549.9c12.9,0,23.4,10.5,23.4,23.4v346.2c0,12.9-10.5,23.4-23.4,23.4H-799.1
	c-12.9,0-23.4-10.5-23.4-23.4v-346.2C-822.5-160.2-812-170.7-799.1-170.7z"/>
<defs>
	<filter id="Adobe_OpacityMaskFilter" filterUnits="userSpaceOnUse" x="-1135.9" y="-601.1" width="3500" height="1457.2">
		<feColorMatrix  type="matrix" values="1 0 0 0 0  0 1 0 0 0  0 0 1 0 0  0 0 0 1 0"/>
	</filter>
</defs>
<mask maskUnits="userSpaceOnUse" x="-1135.9" y="-601.1" width="3500" height="1457.2" id="mask0_0_618_00000135681558253245242810000000133959829055694751_">
	<path class="st1" d="M-799.1-170.7h2549.9c12.9,0,23.4,10.5,23.4,23.4v346.2c0,12.9-10.5,23.4-23.4,23.4H-799.1
		c-12.9,0-23.4-10.5-23.4-23.4v-346.2C-822.5-160.2-812-170.7-799.1-170.7z"/>
</mask>
<g class="st2">
	<path class="st3" d="M691.1-390.4c0,123.3,36.3,211.7,170.8,268.7c134.5,57.1,264.5,5,394.8,34.8s130.4,222.1,253.1,340.5
		c122.8,118.3,381.6,147.1,592.1,27s305.9-400.4,243-565.7c-62.9-165.3-183.4-316.1-765-316.1C998.5-601.1,691.1-513.8,691.1-390.4z
		"/>
	<path class="st3" d="M-1135.9,107.9c0,123.3,36.3,211.7,170.8,268.7s264.5,5,394.8,34.8c130.4,29.9,130.4,222.1,253.1,340.5
		S64.5,899,275,778.9s305.9-400.4,243-565.7C455.1,48,334.6-102.9-247-102.9S-1135.9-15.5-1135.9,107.9z"/>
</g>
</svg>
